<svg width="535" height="660" viewBox="0 0 535 660" fill="none" xmlns="http://www.w3.org/2000/svg">
<path d="M514 370C514 458.366 514 530 349.812 530C259.133 530 122 545.866 122 457.5C122 417.296 151.759 338 227.183 338C289.46 278.246 355.803 201 405.225 201C495.904 201 514 281.634 514 370Z" fill="#100F39"/>
<ellipse cx="282.5" cy="354" rx="103.5" ry="19" fill="black"/>
<path d="M71.3206 508.964L55.3612 523.258L74.2293 544.435L90.1886 530.141L71.3206 508.964Z" fill="white"/>
<path d="M55.3611 523.258L46.9021 523.802C44.0926 523.982 41.2752 523.602 38.6135 522.683C35.9517 521.763 33.4984 520.323 31.3959 518.446C28.8076 516.136 25.6953 514.494 22.3298 513.664C18.9643 512.834 15.4475 512.842 12.0855 513.686L0.108231 516.692L46.7531 569.044L74.2291 544.435L55.3611 523.258Z" fill="#E85A4F"/>
<path d="M327.459 451.999L301.981 470.405L300.769 476.178C299.63 481.605 297.225 486.685 293.751 491.001C290.73 494.754 288.512 499.091 287.236 503.741C285.96 508.392 285.654 513.255 286.335 518.03L287.075 523.215L350.248 477.576L327.459 451.999Z" fill="#E85A4F"/>
<path d="M98.5531 313.727L193.66 399.391L71.3209 508.964L107.274 549.316L247.273 448.175L270.613 469.413L314.637 437.608L293.984 414.428L374.863 355.999C383.068 350.071 389.758 342.28 394.385 333.263C399.012 324.246 401.445 314.259 401.484 304.119L401.661 259H119.47C90.7709 259 77.2035 294.497 98.5531 313.727ZM242.007 356.09L210.777 321.04L267.406 333.341L242.007 356.09Z" fill="#8E8D8A"/>
<path d="M314.636 437.608L289.159 456.015L301.852 470.26L301.98 470.405L327.458 451.999L314.636 437.608Z" fill="white"/>
<path d="M402.981 52L276.019 52.0006C269.131 52.0007 262.321 53.4558 256.035 56.2709C249.748 59.086 244.125 63.1977 239.535 68.337L200.266 112.302L242.442 159.522L264.046 149.802L275.339 260H403.661L414.954 149.802L436.558 159.522L478.734 112.302L439.466 68.3365C434.876 63.197 429.253 59.0853 422.966 56.2702C416.679 53.455 409.869 51.9999 402.981 52Z" fill="white"/>
<path d="M332.774 211.753L300.483 140.836C298.675 136.866 294.002 135.12 290.045 136.937L195.426 180.367C191.468 182.184 189.726 186.874 191.533 190.844L223.825 261.762C225.632 265.731 230.306 267.477 234.263 265.661L328.882 222.23C332.839 220.414 334.582 215.723 332.774 211.753Z" fill="#100F39"/>
<path fill-rule="evenodd" clip-rule="evenodd" d="M282.776 190.798C283.711 190.973 284.597 191.35 285.372 191.902C286.146 192.455 286.792 193.17 287.264 193.998C286.503 194.454 285.658 194.75 284.78 194.87C283.902 194.989 283.009 194.928 282.155 194.691C281.285 194.537 280.469 194.162 279.784 193.601C279.1 193.041 278.57 192.315 278.244 191.491C278.911 191.067 279.658 190.786 280.438 190.667C281.218 190.548 282.015 190.592 282.776 190.798Z" fill="#43447C"/>
<path fill-rule="evenodd" clip-rule="evenodd" d="M272.276 203.516C275.121 201.66 276.908 196.362 275.528 193.386C274.282 190.7 269.929 188.768 266.701 189.138C266.329 189.164 265.948 189.194 265.559 189.223L265.559 189.223L265.559 189.223C263.045 189.416 260.256 189.63 258.013 189.225L258.014 189.226C255.293 188.543 252.37 188.743 249.678 189.995C243.214 193.002 240.524 200.938 243.67 207.722C245.586 211.854 249.227 214.605 253.241 215.445C252.614 212.347 254.159 209.109 257.149 207.718C260.395 206.208 264.202 207.405 266.033 210.38C266.403 209.848 266.733 209.289 267.019 208.707C268.326 206.737 270.112 204.786 272.292 203.513L272.276 203.516Z" fill="#43447C"/>
<path d="M200.105 112.465L242.33 159.633L210.071 174.114L263.613 233.924H271.873C275.335 233.924 278.656 235.298 281.104 237.743C283.553 240.188 284.928 243.504 284.928 246.962C284.928 250.42 283.553 253.736 281.104 256.181C278.656 258.626 275.335 260 271.873 260H262.48C260.168 260 257.915 259.265 256.049 257.901L162.914 189.819C160.462 188.027 158.413 185.742 156.898 183.111C155.383 180.48 154.437 177.562 154.119 174.544C153.802 171.526 154.12 168.475 155.054 165.588C155.988 162.7 157.517 160.039 159.542 157.777L200.105 112.465Z" fill="#E85A4F"/>
<rect x="372.238" y="234.51" width="38.9871" height="66.0218" rx="5" transform="matrix(0.937211 -0.348226 0.348762 0.93741 -58.4157 144.301)" fill="#E85A4F"/>
<rect x="374.809" y="235.688" width="34.9884" height="62.0205" rx="3" transform="matrix(0.937211 -0.348226 0.348762 0.93741 -58.6654 145.27)" fill="#19194A"/>
<path d="M478.895 112.235L436.67 159.403L468.929 173.883L415.387 233.694H407.127C403.665 233.694 400.344 235.067 397.896 237.512C395.447 239.957 394.072 243.274 394.072 246.732C394.072 250.19 395.447 253.506 397.896 255.951C400.344 258.396 403.665 259.77 407.127 259.77H416.52C418.832 259.77 421.085 259.035 422.951 257.671L516.086 189.589C518.538 187.797 520.587 185.512 522.102 182.881C523.616 180.25 524.563 177.332 524.881 174.314C525.198 171.296 524.88 168.245 523.946 165.357C523.012 162.469 521.483 159.809 519.458 157.547L478.895 112.235Z" fill="#E85A4F"/>
<path d="M328.227 10.508L346.106 13.4786C348.877 13.939 351.441 15.2774 353.429 17.3018C355.417 19.3262 356.728 21.9327 357.175 24.7479L357.615 27.5254C357.82 28.8169 357.894 30.1253 357.836 31.43L357.384 41.572C357.275 44.0205 356.494 46.3838 355.129 48.3952C354.569 49.2389 353.732 49.8517 352.765 50.1251C351.798 50.3986 350.765 50.315 349.847 49.8892C348.867 49.4155 348.014 48.7064 347.363 47.8237C346.711 46.9411 346.281 45.9116 346.109 44.8253L343.662 29.3876L325.787 26.4175C324.757 26.2464 323.769 25.8712 322.879 25.3133C321.989 24.7554 321.214 24.0258 320.599 23.1661C319.984 22.3064 319.541 21.3335 319.294 20.3029C319.048 19.2723 319.004 18.2041 319.164 17.1595C319.488 15.0498 320.625 13.1638 322.324 11.9164C324.024 10.669 326.147 10.1624 328.227 10.508Z" fill="#19194A"/>
<path d="M349.067 29.9221L346.517 46.4214C345.351 53.9702 334.602 53.919 333.403 46.3592L330.307 26.8278L349.067 29.9221Z" fill="#D90855"/>
<path d="M350.263 27.8035L350.046 31.7674C349.983 32.9375 349.692 34.0819 349.19 35.1352C348.688 36.1884 347.986 37.13 347.122 37.9061C346.259 38.6822 345.252 39.2776 344.159 39.6583C343.065 40.0391 341.907 40.1977 340.75 40.1252C340.247 40.0936 339.762 39.9203 339.349 39.625C338.937 39.3297 338.613 38.9241 338.415 38.4541C338.218 37.984 337.894 37.5784 337.482 37.2831C337.069 36.9879 336.584 36.8146 336.081 36.7831L334.433 36.6796C333.93 36.6481 333.429 36.7594 332.987 37.0011C332.545 37.2428 332.18 37.6051 331.932 38.0472C331.684 38.4894 331.319 38.8517 330.877 39.0934C330.435 39.3351 329.935 39.4465 329.432 39.415C328.275 39.3423 327.141 39.0399 326.097 38.5251C325.052 38.0102 324.117 37.2929 323.344 36.4141C322.571 35.5353 321.976 34.5123 321.592 33.4035C321.208 32.2946 321.044 31.1216 321.107 29.9515L321.324 25.9876L350.263 27.8035Z" fill="#E7799A"/>
<path d="M329.547 37.2877C329.658 37.2951 329.768 37.2708 329.865 37.2176C329.962 37.1644 330.043 37.0844 330.097 36.9869C330.535 36.1976 331.185 35.5506 331.972 35.1201C332.759 34.6895 333.652 34.4928 334.547 34.5524L336.196 34.6558C337.092 34.7086 337.957 35.0155 338.692 35.5416C339.427 36.0676 340.002 36.7914 340.352 37.6301C340.395 37.7338 340.466 37.8233 340.556 37.8884C340.647 37.9535 340.754 37.9915 340.865 37.998C342.643 38.1075 344.387 37.499 345.714 36.3062C347.041 35.1134 347.842 33.4336 347.942 31.6353L348.042 29.799L323.31 28.247L323.21 30.0834C323.114 31.882 323.727 33.6505 324.915 35.0012C326.103 36.3518 327.769 37.1741 329.547 37.2877Z" fill="#19194A"/>
<path d="M341.604 29.3945L346.433 35.5403C345.739 36.3936 344.85 37.0619 343.841 37.4873L337.268 29.1224L341.604 29.3945Z" fill="white"/>
<path d="M327.774 28.5272L332.707 34.8048C331.656 35.1655 330.765 35.8878 330.189 36.8465L323.438 28.255L327.774 28.5272Z" fill="white"/>
</svg>
