<svg width="353" height="742" viewBox="0 0 353 742" fill="none" xmlns="http://www.w3.org/2000/svg">
<path fill-rule="evenodd" clip-rule="evenodd" d="M218.53 347.069L217.213 346.643L280.422 150.674L281.738 151.1L218.53 347.069Z" fill="#19194A"/>
<path fill-rule="evenodd" clip-rule="evenodd" d="M134.313 347.088L71.0948 151.1L72.4113 150.674L135.63 346.662L134.313 347.088Z" fill="#19194A"/>
<path fill-rule="evenodd" clip-rule="evenodd" d="M210.442 486.033L209.068 485.888L222.76 354.745L224.125 354.881L210.442 486.033Z" fill="#19194A"/>
<path fill-rule="evenodd" clip-rule="evenodd" d="M208.092 485.96H209.475V197.055H208.092V485.96Z" fill="#19194A"/>
<path fill-rule="evenodd" clip-rule="evenodd" d="M142.396 486.033L128.713 354.881L130.087 354.745L143.77 485.888L142.396 486.033Z" fill="#19194A"/>
<path fill-rule="evenodd" clip-rule="evenodd" d="M143.353 485.96H144.737V197.055H143.353V485.96Z" fill="#19194A"/>
<path fill-rule="evenodd" clip-rule="evenodd" d="M124.893 340.816L5.41333 211.386L6.43189 210.438L125.902 339.867L124.893 340.816Z" fill="#19194A"/>
<path fill-rule="evenodd" clip-rule="evenodd" d="M227.948 340.816L226.939 339.867L346.408 210.438L347.427 211.386L227.948 340.816Z" fill="#19194A"/>
<path fill-rule="evenodd" clip-rule="evenodd" d="M125.428 351.961H227.428V340.346H125.428V351.961Z" fill="#19194A"/>
<path fill-rule="evenodd" clip-rule="evenodd" d="M176.451 0.867676H176.326C172.579 3.66516 168.745 6.54008 164.795 9.52148C78.323 74.7251 80.2736 185.298 81.9936 210.979H176.451V0.867676Z" fill="#E85A4F"/>
<path fill-rule="evenodd" clip-rule="evenodd" d="M352.394 178.102C352.394 80.268 273.696 0.941453 176.577 0.864014C180.324 3.6615 184.168 6.53642 188.117 9.51782C274.58 74.7312 272.629 185.304 270.909 210.975H349.358C351.347 200.318 352.394 189.341 352.394 178.102Z" fill="#E85A4F"/>
<path fill-rule="evenodd" clip-rule="evenodd" d="M164.792 9.52148C168.741 6.54008 172.575 3.66516 176.322 0.867676C79.2129 0.935435 0.514404 80.262 0.514404 178.106C0.514404 189.335 1.5618 200.321 3.55088 210.979H81.9995C80.2795 185.298 78.3192 74.7251 164.792 9.52148Z" fill="#19194A"/>
<path fill-rule="evenodd" clip-rule="evenodd" d="M188.116 9.52148C184.167 6.54008 180.323 3.66516 176.575 0.867676H176.451V210.979H270.908C272.628 185.298 274.579 74.7251 188.116 9.52148Z" fill="#19194A"/>
<path fill-rule="evenodd" clip-rule="evenodd" d="M243.193 437.48L241.907 436.583L222.656 469H221.414H176.689H131.344L111.466 436.583L78.0596 459.874L81.2043 469.167L131.58 617.904L131.59 617.952H131.731H220.597H221.783H222.656L272.169 469.167L275.314 459.874L243.193 437.48Z" fill="white"/>
<path fill-rule="evenodd" clip-rule="evenodd" d="M119.477 350.772V341.932C119.477 338.143 122.682 335.068 126.63 335.068C130.589 335.068 133.794 338.143 133.794 341.932V346.337C133.794 349.239 132.99 352.092 131.473 354.608L96.8105 412.218L111.469 436.578L78.0627 459.869L66.0062 424.258C63.4643 416.749 65.2828 408.516 70.7886 402.655L119.477 350.772Z" fill="#E85A4F"/>
<path fill-rule="evenodd" clip-rule="evenodd" d="M282.592 402.657L233.904 350.774V341.934C233.904 338.146 230.699 335.07 226.74 335.07C222.792 335.07 219.587 338.146 219.587 341.934V346.33C219.587 349.232 220.391 352.095 221.898 354.611L256.57 412.22L241.911 436.581L243.197 437.477L275.318 459.871L287.374 424.251C289.916 416.751 288.088 408.518 282.592 402.657Z" fill="#E85A4F"/>
<path fill-rule="evenodd" clip-rule="evenodd" d="M125.421 599.738H228.71L232.785 587.534H121.296L125.421 599.738Z" fill="#100F39"/>
<path fill-rule="evenodd" clip-rule="evenodd" d="M144.884 527.356H207.946V515.753H144.884V527.356Z" fill="#100F39"/>
<path fill-rule="evenodd" clip-rule="evenodd" d="M188.336 529.472H193.697V513.647H188.336V529.472Z" fill="#19194A"/>
<path fill-rule="evenodd" clip-rule="evenodd" d="M187.574 601.549H192.945V585.723H187.574V601.549Z" fill="#19194A"/>
<path fill-rule="evenodd" clip-rule="evenodd" d="M133.377 618.109H144.887V469H133.377V618.109Z" fill="#19194A"/>
<path fill-rule="evenodd" clip-rule="evenodd" d="M207.944 618.109H219.453V469H207.944V618.109Z" fill="#19194A"/>
<path fill-rule="evenodd" clip-rule="evenodd" d="M205.848 493.309H221.568V487.899H205.848V493.309Z" fill="#100F39"/>
<path fill-rule="evenodd" clip-rule="evenodd" d="M131.277 493.309H146.996V487.899H131.277V493.309Z" fill="#100F39"/>
<path d="M175.508 462.487C173.219 462.535 170.997 461.695 169.283 460.135C167.57 458.575 166.49 456.409 166.259 454.068L165.303 441.541C165.267 440.851 165.37 440.16 165.606 439.512C165.843 438.864 166.207 438.274 166.676 437.778C167.145 437.282 167.709 436.891 168.332 436.629C168.955 436.368 169.624 436.243 170.297 436.26H185.496V452.686C185.434 455.347 184.348 457.874 182.475 459.712C180.602 461.549 178.096 462.548 175.508 462.487Z" fill="#19194A"/>
<path d="M176.733 439.339H176.183C176.094 439.339 176.005 439.34 175.917 439.343C174.636 439.404 173.384 439.754 172.249 440.368C171.114 440.982 170.124 441.845 169.349 442.896C168.575 443.946 168.034 445.159 167.765 446.449C167.497 447.738 167.507 449.072 167.796 450.357L170.899 462.9C171.171 464.211 171.87 465.387 172.881 466.233C173.892 467.079 175.155 467.544 176.459 467.551C177.762 467.544 179.025 467.079 180.036 466.233C181.047 465.387 181.746 464.211 182.018 462.9L185.122 450.357C185.41 449.072 185.42 447.738 185.152 446.449C184.883 445.159 184.342 443.946 183.568 442.896C182.793 441.845 181.803 440.982 180.668 440.368C179.533 439.754 178.281 439.404 177 439.343C176.912 439.34 176.823 439.339 176.733 439.339Z" fill="#E85A4F"/>
<path d="M187.43 450.891C186.994 450.566 186.466 450.396 185.927 450.407H166.983C166.446 450.397 165.921 450.568 165.487 450.892C164.265 451.716 163.73 453.706 164.977 455.714C165.422 456.478 166.048 457.113 166.797 457.56C167.546 458.007 168.393 458.252 169.258 458.272H183.64C184.509 458.255 185.359 458.012 186.111 457.565C186.864 457.117 187.493 456.481 187.939 455.714C189.186 453.706 188.651 451.716 187.43 450.891Z" fill="#E85A4F"/>
<path d="M185.421 446.689L167.242 448.654L166.286 441.174C166.286 439.871 166.79 438.621 167.686 437.7C168.582 436.778 169.798 436.26 171.066 436.26H189.113V441.91C189.113 444.006 187.46 446.689 185.421 446.689Z" fill="#19194A"/>
<path fill-rule="evenodd" clip-rule="evenodd" d="M218.573 681.581L208.534 698.964L208.475 699.074L217.994 703.307L228.058 685.806L218.573 681.581Z" fill="white"/>
<path fill-rule="evenodd" clip-rule="evenodd" d="M142.355 698.962L142.278 698.996L142.355 698.962L132.316 681.588L132.24 681.614L122.269 686.051L132.402 703.51L142.406 699.056L142.355 698.962Z" fill="white"/>
<path fill-rule="evenodd" clip-rule="evenodd" d="M228.053 685.814L218.048 703.214L217.989 703.324L218.287 705.39C218.874 709.453 218.678 713.584 217.717 717.562C216.058 724.412 216.696 731.62 219.537 738.063L221.026 741.446L247.951 694.62L228.053 685.814Z" fill="#E85A4F"/>
<path fill-rule="evenodd" clip-rule="evenodd" d="M132.735 717.523C131.748 713.545 131.536 709.405 132.114 705.351L132.404 703.277L132.395 703.26L132.344 703.175L122.263 685.818L102.398 694.7L129.528 741.416L131 738.033C133.816 731.564 134.428 724.365 132.735 717.523Z" fill="#E85A4F"/>
<path fill-rule="evenodd" clip-rule="evenodd" d="M224.807 615.551H125.193L68.0128 597.374C37.3357 587.412 20.3041 631.747 49.7648 644.863L132.174 681.523L149.946 712.106L175.434 700.767L200.939 712.114L218.566 681.583L301.111 644.854C330.581 631.747 313.541 587.412 282.872 597.365L224.807 615.551Z" fill="#8E8D8A"/>
</svg>
